<?xml version="1.0" standalone="no"?>
<!DOCTYPE svg PUBLIC "-//W3C//DTD SVG 20010904//EN"
 "http://www.w3.org/TR/2001/REC-SVG-20010904/DTD/svg10.dtd">
<svg version="1.0" xmlns="http://www.w3.org/2000/svg"
 width="500.000000pt" height="500.000000pt" viewBox="0 0 500.000000 500.000000"
 preserveAspectRatio="xMidYMid meet">

<g transform="translate(0.000000,500.000000) scale(0.100000,-0.100000)"
fill="#000000" stroke="none">
<path d="M1786 3474 c-378 -81 -682 -389 -761 -771 -20 -94 -19 -315 0 -408
23 -110 80 -244 144 -342 169 -255 438 -418 731 -441 l90 -8 0 27 c0 25 -3 26
-68 32 -144 14 -318 74 -437 152 -85 55 -222 197 -277 285 -56 90 -104 206
-125 304 -22 96 -21 298 1 394 90 403 428 700 837 738 64 6 69 9 69 30 0 23
-3 24 -67 23 -38 0 -99 -7 -137 -15z"/>
<path d="M2801 3305 c7 -6 -23 -154 -35 -173 -8 -13 54 -32 106 -32 106 0 133
144 35 185 -37 14 -115 30 -106 20z m93 -28 c16 -11 18 -24 14 -70 -5 -61 -27
-97 -60 -97 -10 0 -18 7 -18 15 0 27 33 165 40 165 3 0 14 -6 24 -13z"/>
<path d="M2109 3263 c-36 -22 -86 -99 -99 -155 l-12 -46 -53 5 c-47 5 -54 3
-69 -18 -11 -16 -16 -44 -16 -91 0 -57 -3 -69 -20 -78 -16 -9 -18 -17 -13 -60
4 -38 2 -55 -10 -68 -13 -14 -14 -26 -7 -57 7 -30 6 -43 -6 -56 -16 -17 -19
-55 -5 -63 16 -10 -36 -166 -73 -220 -20 -29 -64 -77 -99 -108 -41 -36 -69
-71 -81 -99 -10 -24 -24 -59 -32 -77 -19 -43 -4 -104 35 -143 58 -57 191 -68
307 -24 37 14 68 24 69 23 1 -2 10 -17 19 -35 31 -62 153 -130 247 -138 30 -2
70 -9 89 -15 19 -5 73 -9 120 -9 l85 2 -85 8 c-146 13 -201 26 -239 57 -36 29
-78 89 -69 98 3 2 29 -1 59 -6 30 -6 136 -13 235 -17 165 -5 190 -4 277 16 86
20 108 30 206 95 60 40 131 79 158 86 77 21 181 76 240 126 51 44 55 46 67 28
8 -11 24 -30 36 -44 12 -14 7 -4 -10 21 -27 40 -30 50 -21 68 7 12 15 21 20
21 15 0 73 -81 87 -123 7 -23 12 -31 9 -17 -3 14 -5 30 -5 37 0 7 -20 37 -45
67 -26 33 -40 58 -34 62 6 3 11 4 13 3 1 -2 23 -32 49 -67 26 -34 47 -69 47
-77 0 -7 4 -16 9 -20 16 -9 -5 52 -30 87 -12 18 -35 47 -50 63 -23 26 -28 40
-31 101 -3 65 -7 75 -49 135 -25 35 -63 97 -84 137 -42 80 -74 112 -114 112
-36 0 -139 -51 -179 -89 -18 -17 -36 -31 -38 -31 -3 0 -25 12 -49 26 -41 24
-45 24 -74 10 -16 -9 -45 -40 -63 -71 -18 -30 -38 -55 -45 -55 -17 0 -17 4 8
52 12 23 24 67 26 98 8 90 -24 134 -144 194 -43 21 -56 34 -73 73 -27 60 -43
78 -110 121 -30 20 -90 64 -133 99 -81 66 -104 73 -148 46z m53 -18 c-2 -16
-1 -17 7 -5 5 8 12 12 14 10 2 -3 12 -16 21 -30 l18 -25 -7 25 c-7 21 -1 19
45 -20 28 -25 79 -62 113 -83 33 -21 67 -46 74 -55 24 -30 62 -109 56 -116 -3
-3 0 -12 7 -21 7 -8 8 -15 2 -15 -5 0 -15 7 -22 15 -7 8 -17 15 -23 15 -5 0 2
-9 17 -21 14 -11 26 -27 26 -36 0 -11 -10 -6 -35 16 -20 17 -39 31 -42 31 -4
0 12 -16 35 -36 23 -20 39 -40 36 -45 -3 -6 -12 -5 -22 3 -14 11 -14 9 1 -8
27 -32 20 -41 -10 -13 -49 44 -70 53 -25 11 25 -24 42 -48 40 -58 -2 -13 -13
-8 -53 25 -27 23 -84 59 -125 79 -69 34 -82 37 -170 38 -52 1 -108 4 -125 8
-26 6 -25 4 10 -14 49 -25 86 -60 65 -60 -8 0 -28 9 -45 20 -64 42 -138 13
-179 -73 -24 -50 -25 -51 -26 -20 0 47 8 60 58 99 48 37 49 43 2 19 l-30 -16
0 72 0 72 58 -6 c31 -3 66 -8 77 -12 19 -6 19 -6 1 6 -11 7 -45 15 -75 19 -50
6 -53 7 -28 15 19 5 51 1 95 -10 165 -44 225 -23 238 81 4 36 3 35 -9 -9 -17
-56 -36 -82 -30 -40 2 16 -8 55 -22 88 -15 33 -24 48 -21 34 5 -24 3 -26 -20
-21 -15 3 -31 15 -37 29 -10 22 -8 28 12 45 30 23 57 20 53 -7z m-67 -82 c-7
-7 -21 -35 -30 -63 -12 -37 -22 -50 -36 -50 -27 0 -24 22 13 103 32 68 32 69
49 46 14 -19 14 -25 4 -36z m516 -275 c97 -60 116 -108 85 -210 -18 -62 -66
-119 -157 -189 -87 -66 -129 -122 -159 -215 -20 -59 -26 -67 -69 -88 -26 -13
-76 -30 -111 -37 -87 -17 -140 -40 -206 -91 -44 -35 -56 -50 -61 -80 -5 -34
-9 -39 -47 -48 -22 -6 -47 -13 -53 -15 -22 -7 -111 27 -133 50 l-21 23 73 27
c313 117 429 201 513 370 21 42 55 97 76 122 22 24 39 49 39 55 0 5 16 28 35
51 51 60 81 125 101 227 10 49 20 90 23 90 2 0 35 -19 72 -42z m-384 18 c29
-8 88 -34 130 -59 85 -49 128 -93 113 -117 -7 -12 -14 -10 -37 10 l-28 25 28
-31 c24 -26 25 -32 13 -49 -13 -18 -14 -18 -47 4 l-34 23 35 -30 c32 -29 34
-32 19 -47 -16 -16 -19 -16 -45 1 l-29 18 23 -25 c44 -50 15 -55 -38 -7 -35
33 -35 33 3 -8 l38 -41 -24 -16 c-22 -14 -26 -14 -47 6 l-22 22 17 -28 c14
-22 15 -31 6 -40 -9 -9 -17 -6 -34 14 -12 14 -33 34 -47 44 -14 11 -5 -2 19
-28 45 -47 51 -77 9 -41 -23 19 -23 19 -5 -2 17 -20 23 -44 11 -44 -4 0 -33
25 -66 55 -32 30 -64 55 -69 55 -6 0 11 -18 39 -39 59 -47 92 -87 92 -113 0
-14 -14 -6 -66 38 -37 30 -92 72 -123 91 -31 20 -59 41 -63 47 -14 20 -8 28
17 22 14 -3 36 -9 50 -12 31 -8 35 20 5 38 -11 7 -20 17 -20 22 0 6 -11 21
-25 35 l-24 26 55 -3 c53 -4 56 -3 52 20 -2 16 -13 26 -34 33 -17 6 -29 15
-27 22 3 7 -6 26 -18 42 -29 40 -22 45 26 21 47 -24 66 -13 42 24 -12 18 -13
26 -4 29 23 10 82 7 134 -7z m-256 -78 c22 -12 39 -25 39 -29 0 -14 -27 -16
-51 -3 -13 7 -34 13 -46 14 -13 0 -23 6 -23 13 0 33 28 35 81 5z m1183 -54
c14 -5 13 -9 -4 -31 -11 -14 -20 -31 -20 -37 1 -6 8 1 16 17 8 15 21 27 29 27
9 0 15 -10 16 -27 0 -25 1 -26 9 -8 7 17 14 8 43 -55 19 -42 42 -82 51 -89 39
-33 67 -99 73 -173 4 -50 2 -70 -5 -63 -6 6 -12 19 -15 30 -2 11 -2 1 0 -22 5
-47 -13 -61 -20 -15 -2 15 -3 10 -2 -10 4 -45 -12 -61 -18 -21 -4 20 -5 17 -4
-9 1 -21 -4 -43 -11 -50 -9 -9 -12 -8 -13 8 0 11 -5 4 -11 -15 -7 -26 -12 -31
-19 -20 -12 20 -11 37 2 19 8 -11 9 -9 3 10 -10 40 -25 60 -18 25 5 -23 -2
-16 -30 30 -20 33 -66 88 -103 123 -55 51 -80 66 -131 82 -36 10 -75 29 -88
41 -19 17 -39 23 -98 27 l-75 5 25 48 c13 27 31 49 39 49 8 0 14 6 12 13 -1 6
9 13 23 15 24 2 48 -12 166 -97 34 -24 61 -36 96 -39 27 -3 48 -1 46 4 -1 5 4
20 11 33 16 30 6 86 -18 103 -11 8 -21 25 -24 38 l-4 25 -2 -26 c-1 -19 -8
-29 -25 -33 -13 -3 -40 -21 -61 -40 -31 -29 -41 -33 -57 -25 -20 11 -20 11 0
32 27 29 122 86 152 92 12 2 25 7 28 10 7 7 17 6 36 -1z m-1073 -14 c43 -24
18 -31 -79 -24 l-99 7 -34 -32 c-19 -17 -27 -29 -18 -25 10 3 20 1 23 -4 3 -5
-3 -12 -14 -15 -28 -7 -39 37 -15 63 30 33 191 54 236 30z m-78 -56 c16 -13
27 -29 25 -34 -3 -10 -87 40 -88 53 0 16 36 5 63 -19z m32 -58 c58 -25 39 -33
-37 -17 -84 16 -139 10 -169 -20 -12 -12 -23 -18 -26 -16 -10 11 10 49 30 57
36 14 164 11 202 -4z m-30 -75 c22 -16 69 -49 105 -73 47 -33 65 -51 64 -66 0
-18 2 -19 14 -9 13 10 14 8 7 -13 -7 -21 -6 -23 7 -12 12 10 17 7 27 -14 8
-19 8 -24 -1 -18 -8 5 -9 2 -5 -11 15 -37 -94 -147 -211 -214 -42 -24 -111
-56 -152 -71 -41 -15 -92 -35 -112 -44 -53 -23 -82 -20 -97 7 -15 28 -61 57
-90 57 -26 0 -28 26 -4 60 9 14 57 68 108 120 87 91 92 99 120 185 36 108 35
108 88 134 49 25 76 21 132 -18z m881 -54 c33 -35 44 -67 25 -67 -5 0 -20 15
-32 33 -34 48 -49 56 -102 57 -50 0 -96 -18 -134 -53 -29 -26 -30 -8 -2 27 31
39 54 46 137 43 71 -2 75 -4 108 -40z m-246 28 c0 -22 -34 -65 -50 -65 -13 0
-20 -7 -20 -19 0 -11 -5 -23 -11 -26 -5 -4 -8 -12 -6 -18 2 -7 -10 -19 -27
-27 -20 -10 -32 -24 -34 -40 -4 -25 -70 -102 -104 -121 -16 -9 -16 -6 -4 29
34 96 66 140 153 215 82 71 103 85 103 72z m134 -62 c31 -40 35 -49 21 -51
-10 -2 -33 12 -52 32 -20 20 -40 36 -47 36 -11 1 22 30 35 30 3 0 23 -21 43
-47z m145 -43 c9 0 12 10 9 30 -5 36 2 37 68 6 62 -29 112 -72 170 -147 57
-75 79 -125 63 -145 -10 -12 -14 -12 -25 3 -12 16 -13 16 -8 -7 5 -25 5 -25
-11 3 -18 31 -31 37 -15 6 7 -11 9 -28 5 -37 -5 -15 -9 -13 -26 8 -17 21 -19
22 -10 3 15 -30 15 -30 -25 -43 -40 -14 -38 -15 -52 25 -11 29 -11 29 -6 -7 5
-30 3 -38 -9 -38 -9 0 -21 8 -27 18 -10 14 -11 14 -6 0 3 -10 -2 -18 -15 -21
-20 -6 -23 -2 -33 43 -3 14 -12 34 -20 45 -11 15 -10 6 4 -35 10 -30 16 -58
14 -62 -11 -18 -25 -6 -49 42 -14 28 -27 50 -30 50 -3 0 7 -25 22 -55 30 -61
31 -58 -38 -99 l-26 -15 -38 72 c-21 39 -55 97 -76 127 -57 82 -53 99 12 54
39 -27 66 -24 54 5 -4 9 -11 30 -15 46 -4 17 -11 38 -15 47 -6 15 1 13 39 -8
47 -26 76 -26 76 0 0 8 -11 23 -24 34 -18 13 -22 22 -14 30 7 7 7 20 -1 43
-18 52 -13 55 27 16 21 -20 44 -37 51 -37z m-144 -24 c64 -25 81 -36 83 -53 2
-13 0 -23 -4 -23 -4 0 -39 18 -77 41 -72 43 -126 57 -174 44 l-28 -7 25 -10
c16 -7 20 -12 12 -15 -8 -3 -21 2 -30 10 -12 13 -13 19 -3 31 27 32 80 27 196
-18z m-50 -22 c16 -7 49 -73 40 -82 -7 -7 -16 4 -44 51 -24 39 -23 41 4 31z
m-52 -46 c62 -28 107 -66 107 -89 0 -5 -29 11 -65 36 -74 50 -132 69 -184 61
l-36 -6 25 21 c30 25 56 21 153 -23z m-17 -64 c22 -16 99 -127 121 -173 3 -8
-4 -22 -18 -33 l-24 -20 27 16 c15 9 29 12 33 7 3 -5 -22 -26 -55 -47 -33 -20
-60 -39 -60 -41 0 -6 62 28 92 50 15 11 31 17 35 13 5 -4 -1 -14 -12 -23 -19
-15 -19 -15 5 -8 l25 7 -23 -24 c-13 -14 -41 -33 -63 -43 -21 -10 -37 -20 -35
-22 5 -6 66 25 89 45 9 8 20 12 24 9 7 -8 10 -6 -47 -44 -86 -58 -136 -68
-325 -67 -93 0 -212 6 -262 14 -81 11 -93 15 -93 32 0 33 -29 84 -55 98 -14 7
-25 17 -25 20 0 20 87 60 177 83 125 31 161 48 222 103 27 24 64 51 83 59 44
20 131 14 164 -11z m-1061 -210 c14 -6 75 -85 75 -98 0 -2 -10 -7 -22 -9 -17
-3 -15 -5 9 -6 17 0 35 -6 39 -12 5 -9 -14 -10 -72 -5 -89 8 -104 19 -104 76
0 52 27 72 75 54z m450 -69 c14 -13 25 -34 25 -47 0 -13 3 -34 7 -47 5 -21 4
-22 -15 -12 -11 6 -29 11 -39 10 -10 0 -3 -6 16 -13 19 -7 41 -22 49 -34 l15
-22 -44 20 c-24 11 -56 20 -71 20 -49 0 -67 86 -28 128 27 29 55 28 85 -3z"/>
<path d="M2370 3077 c0 -2 19 -17 43 -32 23 -16 37 -22 30 -14 -12 15 -73 53
-73 46z"/>
<path d="M2390 3007 c0 -2 15 -16 33 -33 l32 -29 -29 33 c-28 30 -36 37 -36
29z"/>
<path d="M2470 2983 c13 -18 25 -33 27 -33 8 0 -17 38 -33 51 -11 9 -9 2 6
-18z"/>
<path d="M2103 2983 c9 -2 23 -2 30 0 6 3 -1 5 -18 5 -16 0 -22 -2 -12 -5z"/>
<path d="M2158 2983 c6 -2 18 -2 25 0 6 3 1 5 -13 5 -14 0 -19 -2 -12 -5z"/>
<path d="M1958 2923 c7 -3 16 -2 19 1 4 3 -2 6 -13 5 -11 0 -14 -3 -6 -6z"/>
<path d="M2420 2895 c13 -14 26 -25 28 -25 3 0 -5 11 -18 25 -13 14 -26 25
-28 25 -3 0 5 -11 18 -25z"/>
<path d="M2332 2774 c10 -10 20 -15 24 -12 3 4 -5 12 -18 18 -22 12 -22 12 -6
-6z"/>
<path d="M2440 2766 c0 -2 8 -10 18 -17 15 -13 16 -12 3 4 -13 16 -21 21 -21
13z"/>
<path d="M2320 2706 c38 -41 106 -94 81 -63 -8 10 -37 36 -65 59 l-51 42 35
-38z"/>
<path d="M2380 2737 c0 -2 15 -16 33 -33 l32 -29 -29 33 c-28 30 -36 37 -36
29z"/>
<path d="M2250 2645 c19 -19 36 -35 39 -35 3 0 -10 16 -29 35 -19 19 -36 35
-39 35 -3 0 10 -16 29 -35z"/>
<path d="M2312 2580 c7 -11 17 -20 22 -20 5 0 1 9 -9 20 -10 11 -20 20 -22 20
-2 0 2 -9 9 -20z"/>
<path d="M2180 2565 c13 -14 26 -25 28 -25 3 0 -5 11 -18 25 -13 14 -26 25
-28 25 -3 0 5 -11 18 -25z"/>
<path d="M2825 2660 c27 -12 43 -12 25 0 -8 5 -22 9 -30 9 -10 0 -8 -3 5 -9z"/>
<path d="M3190 2655 c0 -8 -14 -31 -31 -52 l-32 -38 37 37 c31 32 47 68 31 68
-3 0 -5 -7 -5 -15z"/>
<path d="M2930 2598 c41 -45 50 -53 50 -45 0 2 -21 23 -47 47 l-48 45 45 -47z"/>
<path d="M2997 2539 c7 -7 15 -10 18 -7 3 3 -2 9 -12 12 -14 6 -15 5 -6 -5z"/>
<path d="M3146 2543 c-4 -5 -33 -11 -64 -14 l-57 -6 50 -1 c28 -1 61 5 75 13
14 8 20 14 14 15 -6 0 -14 -3 -18 -7z"/>
<path d="M3322 2439 c6 -16 12 -28 14 -26 5 5 -13 57 -20 57 -3 0 0 -14 6 -31z"/>
<path d="M3280 2459 c0 -4 9 -26 20 -50 11 -24 19 -37 19 -29 0 15 -38 91 -39
79z"/>
<path d="M3213 2397 c21 -27 37 -53 37 -59 0 -6 3 -9 6 -5 8 8 -29 68 -57 93
-12 10 -6 -3 14 -29z"/>
<path d="M3261 2413 c7 -12 15 -20 18 -17 3 2 -3 12 -13 22 -17 16 -18 16 -5
-5z"/>
<path d="M3180 2400 c0 -3 12 -27 26 -55 13 -27 22 -39 18 -25 -6 23 -44 92
-44 80z"/>
<path d="M3262 2300 c0 -14 2 -19 5 -12 2 6 2 18 0 25 -3 6 -5 1 -5 -13z"/>
<path d="M2136 2428 l-17 -33 20 24 c18 20 27 41 18 41 -1 0 -11 -15 -21 -32z"/>
<path d="M2125 2358 l-40 -43 43 40 c39 36 47 45 39 45 -2 0 -21 -19 -42 -42z"/>
<path d="M2189 2358 c-17 -24 -18 -29 -6 -19 18 14 42 51 33 51 -3 0 -15 -15
-27 -32z"/>
<path d="M2131 2330 c-13 -11 -19 -20 -14 -20 6 0 18 9 28 20 23 25 17 25 -14
0z"/>
<path d="M2195 2323 l-17 -28 23 22 c12 12 20 25 17 28 -3 3 -13 -7 -23 -22z"/>
<path d="M3013 2251 c12 -22 23 -38 25 -36 5 5 -26 63 -37 69 -5 4 0 -12 12
-33z"/>
<path d="M3160 2253 c13 -18 25 -33 27 -33 8 0 -17 38 -33 51 -11 9 -9 2 6
-18z"/>
<path d="M3207 2225 c9 -19 18 -33 21 -31 4 5 -26 66 -33 66 -3 0 3 -16 12
-35z"/>
<path d="M3061 2214 c0 -11 3 -14 6 -6 3 7 2 16 -1 19 -3 4 -6 -2 -5 -13z"/>
<path d="M3110 2221 c0 -6 4 -13 10 -16 6 -3 7 1 4 9 -7 18 -14 21 -14 7z"/>
<path d="M2812 2141 c12 -22 24 -38 26 -36 5 4 -37 75 -44 75 -3 0 6 -18 18
-39z"/>
<path d="M3110 2163 c0 -4 5 -15 10 -23 8 -13 10 -13 10 2 0 9 -4 20 -10 23
-5 3 -10 3 -10 -2z"/>
<path d="M3091 2134 c0 -11 3 -14 6 -6 3 7 2 16 -1 19 -3 4 -6 -2 -5 -13z"/>
<path d="M2887 2069 c4 -13 8 -18 11 -10 2 7 -1 18 -6 23 -8 8 -9 4 -5 -13z"/>
<path d="M2857 2049 c4 -13 8 -18 11 -10 2 7 -1 18 -6 23 -8 8 -9 4 -5 -13z"/>
<path d="M2668 1933 c7 -3 16 -2 19 1 4 3 -2 6 -13 5 -11 0 -14 -3 -6 -6z"/>
<path d="M2570 1920 l-35 -7 35 -1 c19 0 46 4 60 8 l25 8 -25 0 c-14 0 -41 -4
-60 -8z"/>
<path d="M2428 1903 c12 -2 32 -2 45 0 12 2 2 4 -23 4 -25 0 -35 -2 -22 -4z"/>
<path d="M3040 3210 c-11 -11 -20 -27 -20 -35 0 -9 9 -33 20 -55 24 -47 25
-69 4 -77 -21 -8 -35 8 -43 49 -7 33 -7 33 -20 10 -11 -20 -10 -27 4 -42 24
-26 71 -43 100 -36 37 9 42 48 15 106 -13 27 -20 56 -17 64 10 26 37 18 51
-14 12 -29 26 -31 26 -3 0 16 -58 53 -82 53 -10 0 -27 -9 -38 -20z"/>
<path d="M3229 3103 c-31 -3 -40 -11 -68 -58 -27 -44 -31 -57 -21 -74 11 -21
56 -39 67 -27 4 3 -1 6 -10 6 -9 0 -17 7 -17 15 0 24 54 95 68 90 7 -3 10 0 7
5 -3 5 -1 19 5 30 6 11 9 19 8 18 -2 -1 -19 -3 -39 -5z"/>
<path d="M3252 2977 c-31 -33 -28 -72 7 -108 16 -16 37 -29 46 -29 28 0 73 29
80 51 25 78 -78 145 -133 86z m108 -20 c0 -16 -71 -87 -87 -87 -25 0 -13 33
27 72 36 37 60 43 60 15z"/>
<path d="M3430 2870 c0 -5 -21 -23 -47 -41 -27 -18 -49 -33 -51 -35 -2 -1 4
-14 13 -28 15 -22 19 -24 32 -11 8 8 34 27 58 41 l44 26 -21 29 c-23 31 -28
34 -28 19z"/>
<path d="M3466 2788 c-9 -35 -8 -38 14 -38 25 0 36 25 20 45 -17 21 -27 19
-34 -7z"/>
<path d="M3465 2708 c-52 -28 -61 -84 -19 -117 36 -28 48 -26 28 4 -16 24 -16
27 2 46 l18 20 28 -33 c23 -28 29 -31 38 -18 18 28 11 68 -16 89 -30 23 -49
26 -79 9z m95 -43 c0 -21 -28 -31 -43 -16 -9 9 -8 14 3 21 22 14 40 12 40 -5z"/>
<path d="M3375 2230 c10 -11 20 -20 23 -20 3 0 -3 9 -13 20 -10 11 -20 20 -23
20 -3 0 3 -9 13 -20z"/>
<path d="M3423 2145 c11 -31 22 -54 23 -52 6 5 -27 96 -36 102 -4 2 2 -20 13
-50z"/>
<path d="M3379 2100 c9 -27 17 -44 19 -39 4 11 -17 77 -27 83 -4 3 0 -17 8
-44z"/>
<path d="M3481 2129 c-2 -26 -61 -100 -73 -93 -7 4 -8 3 -4 -4 13 -22 -98 -64
-229 -87 -113 -19 -183 -48 -246 -102 -55 -47 -138 -92 -174 -94 -11 0 -14 -3
-8 -6 26 -10 113 29 174 79 83 66 143 93 254 112 120 20 179 39 226 71 52 37
91 90 86 118 -2 12 -5 15 -6 6z"/>
<path d="M3401 2120 c0 -8 4 -22 9 -30 12 -18 12 -2 0 25 -6 13 -9 15 -9 5z"/>
<path d="M2648 1733 c18 -2 45 -2 60 0 15 2 0 4 -33 4 -33 0 -45 -2 -27 -4z"/>
<path d="M2549 1534 c2 -73 0 -99 -10 -105 -9 -6 0 -9 26 -9 l40 0 -3 65 c-4
61 -2 65 18 65 20 0 22 -4 18 -65 l-3 -65 40 0 c30 0 36 3 27 12 -7 7 -12 35
-12 64 0 61 -16 79 -60 70 -29 -5 -30 -4 -30 29 0 31 -3 35 -27 35 l-28 0 4
-96z"/>
<path d="M2374 1595 c-21 -32 -11 -57 37 -96 32 -25 40 -37 36 -56 -5 -27 9
-30 41 -7 35 24 27 51 -29 104 -52 47 -58 70 -18 70 11 0 24 -11 32 -26 l12
-27 5 24 c8 30 -4 39 -57 39 -34 0 -46 -5 -59 -25z"/>
<path d="M2765 1558 c-28 -16 -35 -28 -35 -65 0 -35 29 -73 54 -73 12 0 13 7
5 33 -18 61 14 146 35 91 10 -27 7 -99 -6 -112 -9 -9 -7 -12 9 -12 27 0 63 44
63 77 0 54 -74 90 -125 61z"/>
<path d="M2935 1545 c-30 -30 -32 -64 -4 -99 26 -33 77 -36 104 -6 18 20 18
20 -12 14 -25 -5 -33 -2 -42 14 -17 32 -14 92 4 92 9 0 15 -9 15 -25 0 -18 5
-25 20 -25 13 0 20 7 20 18 0 46 -66 57 -105 17z"/>
<path d="M3085 1547 c-19 -30 -13 -47 26 -76 18 -14 28 -29 25 -37 -7 -17 25
-19 42 -2 21 21 13 46 -23 74 -36 27 -46 54 -21 54 8 0 22 -10 31 -22 l16 -23
-3 25 c-2 21 -9 26 -40 28 -30 3 -40 -1 -53 -21z"/>
<path d="M2365 1460 c-8 -26 -8 -26 30 -36 l30 -7 -25 29 c-14 16 -26 30 -27
32 0 2 -4 -6 -8 -18z"/>
<path d="M3072 1443 c2 -10 14 -19 26 -21 l24 -4 -21 21 c-26 26 -34 26 -29 4z"/>
</g>
</svg>
